<?xml version="1.0" encoding="utf-8"?>
<svg xmlns="http://www.w3.org/2000/svg"
	xmlns:xlink="http://www.w3.org/1999/xlink"
	width="267px" height="37px" viewBox="0 0 267 37">
<path fillRule="evenodd" d="M 17.83 8.11C 12.46 8.11 8.1 12.46 8.1 17.83 8.1 23.21 12.46 27.56 17.83 27.56 23.2 27.56 27.56 23.21 27.56 17.83 27.56 12.46 23.2 8.11 17.83 8.11ZM 17.83 9.73C 20.59 9.73 23.02 11.11 24.48 13.21 24.48 13.21 20.18 15.6 20.18 15.6 19.59 14.98 18.76 14.59 17.83 14.59 16.91 14.59 16.08 14.98 15.49 15.6 15.49 15.6 11.18 13.21 11.18 13.21 12.64 11.11 15.07 9.73 17.83 9.73ZM 17.02 25.9C 12.93 25.49 9.73 22.04 9.73 17.83 9.73 16.69 9.96 15.61 10.39 14.63 10.39 14.63 14.7 17.02 14.7 17.02 14.64 17.29 14.59 17.55 14.59 17.83 14.59 19.34 15.62 20.6 17.02 20.96 17.02 20.96 17.02 25.9 17.02 25.9ZM 16.21 17.83C 16.21 16.94 16.94 16.21 17.83 16.21 18.73 16.21 19.45 16.94 19.45 17.83 19.45 18.73 18.73 19.46 17.83 19.46 16.94 19.46 16.21 18.73 16.21 17.83ZM 25.94 17.83C 25.94 22.04 22.74 25.49 18.64 25.9 18.64 25.9 18.64 20.96 18.64 20.96 20.04 20.6 21.07 19.34 21.07 17.83 21.07 17.55 21.03 17.29 20.96 17.02 20.96 17.02 25.27 14.63 25.27 14.63 25.7 15.61 25.94 16.69 25.94 17.83ZM 34.47 14.27C 34.47 14.27 32.76 13.84 32.76 13.84 32.4 12.52 31.88 11.26 31.21 10.11 31.21 10.11 32.12 8.59 32.12 8.59 32.4 8.04 32.58 7.37 32.12 6.9 32.12 6.9 28.76 3.54 28.76 3.54 28.55 3.33 28.29 3.25 28.03 3.25 27.7 3.25 27.36 3.37 27.08 3.54 27.08 3.54 25.55 4.46 25.55 4.46 24.39 3.79 23.15 3.27 21.83 2.92 21.83 2.92 21.4 1.19 21.4 1.19 21.21 0.61 20.86-0 20.21-0 20.21-0 15.45-0 15.45-0 14.8-0 14.41 0.61 14.26 1.19 14.26 1.19 13.83 2.92 13.83 2.92 12.52 3.27 11.27 3.79 10.12 4.46 10.12 4.46 8.58 3.54 8.58 3.54 8.3 3.37 7.96 3.25 7.64 3.25 7.37 3.25 7.11 3.33 6.9 3.54 6.9 3.54 3.54 6.9 3.54 6.9 3.08 7.37 3.26 8.04 3.54 8.59 3.54 8.59 4.45 10.11 4.45 10.11 3.78 11.26 3.26 12.52 2.9 13.84 2.9 13.84 1.19 14.27 1.19 14.27 0.61 14.42-0 14.8-0 15.46-0 15.46-0 20.21-0 20.21-0 20.87 0.61 21.22 1.19 21.4 1.19 21.4 2.9 21.83 2.9 21.83 3.26 23.15 3.78 24.4 4.45 25.56 4.45 25.56 3.54 27.08 3.54 27.08 3.23 27.6 3.08 28.3 3.54 28.76 3.54 28.76 6.9 32.13 6.9 32.13 7.11 32.33 7.35 32.41 7.61 32.41 7.94 32.41 8.28 32.28 8.58 32.13 8.58 32.13 10.12 31.21 10.12 31.21 11.27 31.87 12.52 32.4 13.83 32.75 13.83 32.75 14.26 34.48 14.26 34.48 14.41 35.06 14.8 35.67 15.45 35.67 15.45 35.67 20.21 35.67 20.21 35.67 20.86 35.67 21.21 35.06 21.4 34.48 21.4 34.48 21.83 32.75 21.83 32.75 23.15 32.4 24.39 31.87 25.55 31.21 25.55 31.21 27.08 32.13 27.08 32.13 27.38 32.28 27.73 32.41 28.05 32.41 28.31 32.41 28.55 32.33 28.76 32.13 28.76 32.13 32.12 28.76 32.12 28.76 32.58 28.3 32.43 27.6 32.12 27.08 32.12 27.08 31.21 25.56 31.21 25.56 31.88 24.4 32.4 23.15 32.76 21.83 32.76 21.83 34.47 21.4 34.47 21.4 35.06 21.22 35.66 20.87 35.66 20.21 35.66 20.21 35.66 15.46 35.66 15.46 35.66 14.8 35.06 14.42 34.47 14.27ZM 34.04 19.84C 34.03 19.84 34.03 19.84 34.02 19.84 34.02 19.84 32.36 20.26 32.36 20.26 31.79 20.4 31.34 20.84 31.19 21.41 30.88 22.58 30.41 23.7 29.81 24.75 29.51 25.26 29.51 25.89 29.82 26.39 29.82 26.39 30.71 27.88 30.71 27.88 30.71 27.88 27.88 30.71 27.88 30.71 27.87 30.71 27.87 30.71 27.86 30.71 27.86 30.71 26.38 29.82 26.38 29.82 26.12 29.66 25.84 29.59 25.55 29.59 25.27 29.59 24.99 29.66 24.74 29.8 23.69 30.41 22.57 30.87 21.41 31.18 20.84 31.34 20.4 31.78 20.26 32.36 20.26 32.36 19.84 34.03 19.84 34.03 19.84 34.04 19.84 34.04 19.83 34.05 19.83 34.05 15.83 34.05 15.83 34.05 15.83 34.05 15.4 32.36 15.4 32.36 15.26 31.78 14.82 31.34 14.25 31.18 13.09 30.87 11.97 30.41 10.93 29.8 10.67 29.66 10.39 29.59 10.12 29.59 9.83 29.59 9.54 29.66 9.28 29.82 9.28 29.82 7.8 30.71 7.8 30.71 7.8 30.71 7.79 30.71 7.78 30.71 7.78 30.71 4.95 27.88 4.95 27.88 4.95 27.88 5.84 26.39 5.84 26.39 6.15 25.89 6.15 25.26 5.86 24.75 5.25 23.7 4.78 22.58 4.47 21.41 4.32 20.84 3.87 20.4 3.3 20.26 3.3 20.26 1.64 19.84 1.64 19.84 1.63 19.84 1.63 19.84 1.62 19.84 1.62 19.84 1.62 15.83 1.62 15.83 1.62 15.83 3.3 15.41 3.3 15.41 3.87 15.27 4.32 14.83 4.47 14.26 4.78 13.09 5.25 11.97 5.86 10.92 6.15 10.41 6.15 9.78 5.84 9.27 5.84 9.27 4.96 7.8 4.96 7.8 4.96 7.8 4.96 7.79 4.95 7.78 4.95 7.78 7.79 4.95 7.79 4.95 7.79 4.95 9.28 5.85 9.28 5.85 9.54 6 9.83 6.08 10.12 6.08 10.39 6.08 10.67 6.01 10.93 5.86 11.97 5.26 13.09 4.8 14.25 4.49 14.82 4.33 15.26 3.88 15.4 3.31 15.4 3.31 15.83 1.62 15.83 1.62 15.83 1.62 19.83 1.62 19.83 1.62 19.84 1.63 19.84 1.63 19.84 1.64 19.84 1.64 20.26 3.31 20.26 3.31 20.4 3.88 20.84 4.33 21.41 4.49 22.57 4.8 23.69 5.26 24.74 5.86 24.99 6.01 25.27 6.08 25.55 6.08 25.84 6.08 26.12 6 26.38 5.85 26.38 5.85 27.88 4.95 27.88 4.95 27.88 4.95 30.71 7.78 30.71 7.78 30.71 7.79 30.7 7.8 30.7 7.8 30.7 7.8 29.82 9.27 29.82 9.27 29.51 9.78 29.51 10.41 29.81 10.92 30.41 11.97 30.88 13.09 31.19 14.26 31.34 14.83 31.79 15.27 32.36 15.41 32.36 15.41 34.04 15.83 34.04 15.83 34.04 15.83 34.04 19.84 34.04 19.84Z" fill="rgb(97,159,209)"/><path fillRule="evenodd" d="M 93.33 32.92C 93.23 32.97 93.11 33 93 33 92.89 33 92.77 32.97 92.67 32.91 92.15 32.63 80 25.77 80 17.19 80 17.19 80 2.28 80 2.28 80 2.01 80.16 1.76 80.4 1.65 80.65 1.54 80.94 1.58 81.14 1.76 82.52 3.01 84.3 3.69 86.16 3.69 88.69 3.69 91.03 2.43 92.43 0.31 92.56 0.12 92.77-0 93-0 93.23-0 93.44 0.12 93.57 0.31 94.97 2.43 97.31 3.69 99.84 3.69 101.68 3.69 103.44 3.02 104.82 1.81 105.12 1.48 105.78 1.58 105.96 2.03 105.99 2.13 106.01 2.24 106 2.34 106 2.34 106 17.19 106 17.19 106 25.77 93.85 32.63 93.33 32.92ZM 104.63 3.66C 103.21 4.57 101.55 5.07 99.84 5.07 97.18 5.07 94.68 3.88 93 1.84 91.32 3.87 88.82 5.07 86.16 5.07 84.45 5.07 82.79 4.57 81.37 3.66 81.37 3.66 81.37 17.19 81.37 17.19 81.37 24.23 91.07 30.37 93 31.52 94.93 30.37 104.63 24.22 104.63 17.19 104.63 17.19 104.63 17.19 104.63 17.19 104.63 17.19 104.63 3.66 104.63 3.66ZM 92.11 19.05C 91.98 19.18 91.81 19.25 91.63 19.25 91.45 19.25 91.27 19.18 91.14 19.05 91.14 19.05 88.41 16.3 88.41 16.3 88.15 16.03 88.15 15.59 88.41 15.33 88.68 15.06 89.11 15.06 89.38 15.33 89.38 15.33 91.63 17.59 91.63 17.59 91.63 17.59 96.62 12.58 96.62 12.58 96.89 12.31 97.32 12.31 97.59 12.58 97.86 12.84 97.86 13.28 97.59 13.55 97.59 13.55 92.11 19.05 92.11 19.05Z" fill="rgb(97,159,209)"/><path fillRule="evenodd" d="M 153.23-0.06C 153.23-0.06 124.05-0.06 124.05-0.06 122.26-0.06 120.81 1.4 120.81 3.19 120.81 3.19 120.81 27.51 120.81 27.51 120.81 29.3 122.26 30.75 124.05 30.75 124.05 30.75 135.4 30.75 135.4 30.75 135.4 30.75 135.4 33.99 135.4 33.99 135.4 33.99 132.97 33.99 132.97 33.99 132.52 33.99 132.16 34.36 132.16 34.8 132.16 35.25 132.52 35.61 132.97 35.61 132.97 35.61 135.4 35.61 135.4 35.61 135.4 35.61 141.88 35.61 141.88 35.61 141.88 35.61 144.32 35.61 144.32 35.61 144.76 35.61 145.13 35.25 145.13 34.8 145.13 34.36 144.76 33.99 144.32 33.99 144.32 33.99 141.88 33.99 141.88 33.99 141.88 33.99 141.88 30.75 141.88 30.75 141.88 30.75 153.23 30.75 153.23 30.75 155.02 30.75 156.47 29.3 156.47 27.51 156.47 27.51 156.47 3.19 156.47 3.19 156.47 1.4 155.02-0.06 153.23-0.06ZM 140.26 33.99C 140.26 33.99 137.02 33.99 137.02 33.99 137.02 33.99 137.02 30.75 137.02 30.75 137.02 30.75 140.26 30.75 140.26 30.75 140.26 30.75 140.26 33.99 140.26 33.99ZM 154.85 27.51C 154.85 28.4 154.13 29.13 153.23 29.13 153.23 29.13 141.88 29.13 141.88 29.13 141.88 29.13 135.4 29.13 135.4 29.13 135.4 29.13 124.05 29.13 124.05 29.13 123.16 29.13 122.43 28.4 122.43 27.51 122.43 27.51 122.43 25.89 122.43 25.89 122.43 25.89 154.85 25.89 154.85 25.89 154.85 25.89 154.85 27.51 154.85 27.51ZM 154.85 24.26C 154.85 24.26 122.43 24.26 122.43 24.26 122.43 24.26 122.43 3.19 122.43 3.19 122.43 2.29 123.16 1.57 124.05 1.57 124.05 1.57 153.23 1.57 153.23 1.57 154.13 1.57 154.85 2.29 154.85 3.19 154.85 3.19 154.85 24.26 154.85 24.26ZM 142.97 17.02C 142.97 17.02 141.66 16.68 141.66 16.68 142.78 15.79 143.5 14.45 143.5 12.91 143.5 10.91 142.3 9.2 140.57 8.45 140.57 8.45 140.13 10.05 140.13 10.05 141.17 10.59 141.88 11.67 141.88 12.91 141.88 13.93 141.41 14.82 140.68 15.41 140.68 15.41 141.11 13.81 141.11 13.81 141.16 13.61 141.14 13.38 141.03 13.19 140.81 12.8 140.31 12.67 139.92 12.89 139.73 13.01 139.6 13.19 139.54 13.39 139.54 13.39 138.65 16.71 138.65 16.71 138.65 16.71 138.65 16.71 138.65 16.71 138.6 16.91 138.62 17.13 138.74 17.32 138.84 17.5 139.01 17.62 139.19 17.68 139.19 17.68 139.18 17.72 139.18 17.72 139.21 17.72 139.23 17.71 139.26 17.71 139.26 17.71 142.55 18.59 142.55 18.59 142.75 18.65 142.97 18.62 143.16 18.51 143.55 18.29 143.69 17.79 143.46 17.4 143.35 17.21 143.17 17.08 142.97 17.02ZM 138.6 8.53C 138.5 8.35 138.33 8.24 138.15 8.18 138.15 8.18 138.17 8.1 138.17 8.1 138.12 8.1 138.07 8.12 138.01 8.13 138.01 8.13 134.78 7.26 134.78 7.26 134.58 7.21 134.36 7.23 134.17 7.35 133.78 7.57 133.65 8.07 133.87 8.45 133.98 8.65 134.16 8.78 134.37 8.83 134.37 8.83 135.61 9.16 135.61 9.16 134.5 10.04 133.78 11.38 133.78 12.91 133.78 14.94 135.02 16.67 136.78 17.41 136.78 17.41 137.21 15.81 137.21 15.81 136.14 15.28 135.4 14.19 135.4 12.91 135.4 11.87 135.9 10.95 136.68 10.36 136.68 10.36 136.22 12.05 136.22 12.05 136.17 12.25 136.19 12.47 136.3 12.67 136.53 13.05 137.02 13.19 137.41 12.96 137.61 12.85 137.74 12.67 137.79 12.47 137.79 12.47 138.68 9.15 138.68 9.15 138.73 8.95 138.71 8.73 138.6 8.53Z" fill="rgb(97,159,209)"/><path fillRule="evenodd" d="M 194 15.84C 194 15.84 192.35 15.84 192.35 15.84 192.35 15.84 192.35 8.33 192.35 8.33 192.35 6.54 190.87 5.07 189.06 5.07 189.06 5.07 186.82 5.07 186.82 5.07 186.82 5.07 184.54 1.01 184.54 1.01 184.19 0.39 183.53-0 182.81-0 182.48-0 182.14 0.09 181.85 0.25 181.85 0.25 173.09 5.07 173.09 5.07 173.09 5.07 163.3 5.07 163.3 5.07 161.48 5.07 160 6.54 160 8.33 160 8.33 160 30.74 160 30.74 160 32.54 161.48 34 163.3 34 163.3 34 189.06 34 189.06 34 190.87 34 192.35 32.54 192.35 30.74 192.35 30.74 192.35 24.16 192.35 24.16 192.35 24.16 194 24.16 194 24.16 194 24.16 194 15.84 194 15.84 194 15.84 194 15.84 194 15.84ZM 189.06 6.38C 190.07 6.38 190.9 7.14 191.01 8.12 191.01 8.12 188.54 8.12 188.54 8.12 188.54 8.12 187.56 6.38 187.56 6.38 187.56 6.38 189.06 6.38 189.06 6.38ZM 182.49 1.39C 182.8 1.22 183.22 1.34 183.39 1.64 183.39 1.64 187.03 8.12 187.03 8.12 187.03 8.12 170.27 8.12 170.27 8.12 170.27 8.12 182.49 1.39 182.49 1.39ZM 191.03 30.74C 191.03 31.82 190.15 32.69 189.06 32.69 189.06 32.69 163.3 32.69 163.3 32.69 162.21 32.69 161.32 31.82 161.32 30.74 161.32 30.74 161.32 8.33 161.32 8.33 161.32 7.26 162.21 6.38 163.3 6.38 163.3 6.38 170.72 6.38 170.72 6.38 170.72 6.38 167.55 8.12 167.55 8.12 167.55 8.12 163.71 8.12 163.71 8.12 163.34 8.12 163.05 8.41 163.05 8.77 163.05 9.13 163.34 9.42 163.71 9.42 163.71 9.42 165.18 9.42 165.18 9.42 165.18 9.42 189.27 9.42 189.27 9.42 189.27 9.42 191.03 9.42 191.03 9.42 191.03 9.42 191.03 15.84 191.03 15.84 191.03 15.84 186.21 15.84 186.21 15.84 183.98 15.84 182.15 17.64 182.15 19.86 182.15 19.86 182.15 20.14 182.15 20.14 182.15 22.36 183.98 24.16 186.21 24.16 186.21 24.16 191.03 24.16 191.03 24.16 191.03 24.16 191.03 30.74 191.03 30.74 191.03 30.74 191.03 30.74 191.03 30.74ZM 192.68 22.85C 192.68 22.85 192.35 22.85 192.35 22.85 192.35 22.85 186.21 22.85 186.21 22.85 184.7 22.85 183.47 21.64 183.47 20.14 183.47 20.14 183.47 19.86 183.47 19.86 183.47 18.36 184.7 17.14 186.21 17.14 186.21 17.14 192.35 17.14 192.35 17.14 192.35 17.14 192.68 17.14 192.68 17.14 192.68 17.14 192.68 22.85 192.68 22.85ZM 188.23 20.05C 188.23 20.85 187.58 21.49 186.78 21.49 185.97 21.49 185.32 20.85 185.32 20.05 185.32 19.26 185.97 18.61 186.78 18.61 187.58 18.61 188.23 19.26 188.23 20.05Z" fill="rgb(101,161,209)"/><path fillRule="evenodd" d="M 220.27 10.43C 223.85 10.43 226.75 13.33 226.75 16.91 226.75 17.36 227.11 17.72 227.56 17.72 228.01 17.72 228.37 17.36 228.37 16.91 228.37 12.44 224.74 8.81 220.27 8.81 219.82 8.81 219.46 9.17 219.46 9.62 219.46 10.07 219.82 10.43 220.27 10.43ZM 220.27 2.32C 228.32 2.32 234.86 8.85 234.86 16.91 234.86 17.36 235.22 17.72 235.67 17.72 236.11 17.72 236.48 17.36 236.48 16.91 236.48 7.96 229.22 0.7 220.27 0.7 219.82 0.7 219.46 1.06 219.46 1.51 219.46 1.96 219.82 2.32 220.27 2.32ZM 236.46 29.06C 236.46 28.39 236.18 27.78 235.74 27.34 235.61 27.21 235.47 27.1 235.31 27.01 235.31 27.01 228.45 21.67 228.45 21.67 228.01 21.23 227.4 20.95 226.73 20.95 226.18 20.95 225.68 21.14 225.27 21.45 225.27 21.45 223.36 23.38 223.36 23.38 223.36 23.38 223.35 23.38 223.35 23.38 223.06 23.71 222.63 23.92 222.15 23.92 221.6 23.92 221.12 23.65 220.82 23.23 220.81 23.25 220.8 23.26 220.79 23.28 218.14 21.36 215.79 19.04 213.88 16.39 213.89 16.38 213.91 16.36 213.93 16.35 213.51 16.06 213.23 15.57 213.23 15.01 213.23 14.52 213.46 14.08 213.8 13.78 213.8 13.78 213.8 13.77 213.8 13.77 213.8 13.77 215.71 11.88 215.71 11.88 216.02 11.48 216.21 10.98 216.21 10.43 216.21 9.76 215.93 9.15 215.49 8.71 215.49 8.71 210.16 1.84 210.16 1.84 210.06 1.69 209.95 1.54 209.82 1.41 209.38 0.97 208.77 0.7 208.1 0.7 204.86 0.7 200.81 4.51 200.81 9.21 200.81 10.51 201.11 11.74 201.63 12.85 201.63 12.85 201.6 12.87 201.6 12.87 206.48 22.59 214.58 30.69 224.3 35.57 224.3 35.57 224.32 35.55 224.32 35.55 225.43 36.07 226.66 36.37 227.96 36.37 232.66 36.37 236.47 32.32 236.47 29.07 236.47 29.07 236.47 29.07 236.47 29.06 236.47 29.06 236.46 29.06 236.46 29.06ZM 227.96 34.75C 226.94 34.75 225.95 34.52 225.02 34.08 224.93 34.04 224.84 34.01 224.75 33.98 215.53 29.28 207.9 21.65 203.2 12.43 203.17 12.34 203.14 12.24 203.09 12.15 202.65 11.22 202.43 10.23 202.43 9.21 202.43 5.28 205.87 2.32 208.1 2.32 208.39 2.32 208.58 2.47 208.67 2.56 208.69 2.58 208.73 2.62 208.78 2.71 208.81 2.75 208.84 2.8 208.88 2.84 208.88 2.84 214.21 9.7 214.21 9.7 214.25 9.76 214.3 9.81 214.35 9.85 214.44 9.94 214.58 10.14 214.58 10.43 214.58 10.57 214.54 10.71 214.47 10.83 214.47 10.83 212.66 12.62 212.66 12.62 212.65 12.63 212.64 12.64 212.64 12.65 211.98 13.26 211.61 14.12 211.61 15.01 211.61 15.85 211.93 16.65 212.5 17.25 212.52 17.28 212.54 17.31 212.56 17.34 214.55 20.1 217 22.53 219.84 24.59 219.86 24.61 219.88 24.62 219.91 24.64 220.5 25.21 221.31 25.54 222.15 25.54 223 25.54 223.81 25.21 224.42 24.61 224.45 24.58 224.48 24.55 224.51 24.52 224.51 24.52 226.32 22.69 226.32 22.69 226.45 22.62 226.59 22.58 226.73 22.58 227.02 22.58 227.21 22.72 227.3 22.81 227.35 22.86 227.4 22.9 227.45 22.95 227.45 22.95 234.32 28.28 234.32 28.28 234.36 28.32 234.41 28.35 234.45 28.38 234.54 28.43 234.58 28.47 234.6 28.49 234.69 28.58 234.83 28.77 234.83 29.06 234.83 29.12 234.84 29.17 234.84 29.22 234.72 31.46 231.8 34.75 227.96 34.75ZM 220.27 18.53C 221.16 18.53 221.89 17.81 221.89 16.91 221.89 16.02 221.16 15.29 220.27 15.29 219.37 15.29 218.65 16.02 218.65 16.91 218.65 17.81 219.37 18.53 220.27 18.53Z" fill="rgb(97,159,209)"/><path fillRule="evenodd" d="M 253.84 31.88C 253.4 31.88 253.03 32.25 253.03 32.69 253.03 33.14 253.4 33.51 253.84 33.51 254.29 33.51 254.66 33.14 254.66 32.69 254.66 32.25 254.29 31.88 253.84 31.88ZM 244.12 31.07C 244.12 31.07 263.57 31.07 263.57 31.07 263.57 31.07 263.57 5.13 263.57 5.13 263.57 5.13 244.12 5.13 244.12 5.13 244.12 5.13 244.12 31.07 244.12 31.07ZM 245.74 6.75C 245.74 6.75 261.95 6.75 261.95 6.75 261.95 6.75 261.95 29.45 261.95 29.45 261.95 29.45 245.74 29.45 245.74 29.45 245.74 29.45 245.74 6.75 245.74 6.75ZM 253.03 4.32C 253.03 4.32 254.66 4.32 254.66 4.32 255.1 4.32 255.47 3.96 255.47 3.51 255.47 3.06 255.1 2.7 254.66 2.7 254.66 2.7 253.03 2.7 253.03 2.7 252.59 2.7 252.22 3.06 252.22 3.51 252.22 3.96 252.59 4.32 253.03 4.32ZM 263.57 0.27C 263.57 0.27 244.12 0.27 244.12 0.27 242.33 0.27 240.88 1.72 240.88 3.51 240.88 3.51 240.88 32.69 240.88 32.69 240.88 34.49 242.33 35.94 244.12 35.94 244.12 35.94 263.57 35.94 263.57 35.94 265.36 35.94 266.81 34.49 266.81 32.69 266.81 32.69 266.81 3.51 266.81 3.51 266.81 1.72 265.36 0.27 263.57 0.27ZM 265.19 32.69C 265.19 33.59 264.47 34.32 263.57 34.32 263.57 34.32 244.12 34.32 244.12 34.32 243.22 34.32 242.5 33.59 242.5 32.69 242.5 32.69 242.5 3.51 242.5 3.51 242.5 2.61 243.22 1.89 244.12 1.89 244.12 1.89 263.57 1.89 263.57 1.89 264.47 1.89 265.19 2.61 265.19 3.51 265.19 3.51 265.19 32.69 265.19 32.69Z" fill="rgb(97,159,209)"/><path fillRule="evenodd" d="M 78.99 11.67C 78.93 10.56 77.61 9.69 74.96 9.03 75.05 8.84 75.1 8.63 75.1 8.42 75.1 8.42 75.1 3.89 75.1 3.89 75.1 3.89 75.09 3.89 75.09 3.89 74.86 0.11 59.33-0 57.55-0 55.77-0 40.24 0.11 40.01 3.89 40.01 3.89 40 3.89 40 3.89 40 3.89 40 3.97 40 3.97 40 3.97 40 3.97 40 3.97 40 3.97 40 3.97 40 3.97 40 3.97 40 8.43 40 8.43 40 9.66 41.6 10.62 43.97 11.34 43.94 11.45 43.92 11.56 43.91 11.67 43.91 11.67 43.9 11.67 43.9 11.67 43.9 11.67 43.9 11.75 43.9 11.75 43.9 11.75 43.9 11.75 43.9 11.75 43.9 11.75 43.9 11.75 43.9 11.75 43.9 11.75 43.9 16.19 43.9 16.19 41.35 16.85 40.07 17.71 40.01 18.8 40.01 18.8 40 18.8 40 18.8 40 18.8 40 18.88 40 18.88 40 18.88 40 18.88 40 18.88 40 18.88 40 18.88 40 18.88 40 18.88 40 23.33 40 23.33 40 24.19 40.78 24.92 42.05 25.52 42 25.65 41.97 25.79 41.96 25.93 41.96 25.93 41.95 25.93 41.95 25.93 41.95 25.93 41.95 26.01 41.95 26.01 41.95 26.01 41.95 26.01 41.95 26.01 41.95 26.01 41.95 26.01 41.95 26.01 41.95 26.01 41.95 30.46 41.95 30.46 41.96 32.62 46.82 33.96 52.23 34.58 52.27 34.59 52.31 34.61 52.35 34.61 52.36 34.61 52.37 34.6 52.39 34.6 53.43 34.72 54.49 34.81 55.54 34.87 55.56 34.88 55.58 34.89 55.6 34.89 55.61 34.89 55.62 34.88 55.63 34.88 56.96 34.96 58.27 35 59.5 35 60.73 35 62.03 34.96 63.37 34.88 63.38 34.88 63.39 34.89 63.4 34.89 63.42 34.89 63.44 34.87 63.46 34.87 64.51 34.81 65.57 34.72 66.61 34.6 66.63 34.6 66.64 34.6 66.65 34.6 66.69 34.6 66.73 34.59 66.77 34.58 72.18 33.96 77.04 32.62 77.05 30.46 77.05 30.46 77.05 25.93 77.05 25.93 77.05 25.93 77.04 25.93 77.04 25.93 76.99 25.13 76.31 24.47 74.97 23.91 75.06 23.73 75.1 23.53 75.1 23.33 75.1 23.33 75.1 19.09 75.1 19.09 77.43 18.38 79 17.42 79 16.2 79 16.2 79 11.67 79 11.67 79 11.67 78.99 11.67 78.99 11.67ZM 73.73 23.54C 73.73 23.54 73.51 23.73 73.51 23.73 73.17 24.04 72.6 24.34 71.85 24.63 71.85 24.63 71.85 21.54 71.85 21.54 72.62 21.27 73.28 20.97 73.8 20.65 73.8 20.65 73.8 23.33 73.8 23.33 73.8 23.4 73.78 23.47 73.73 23.54ZM 59.19 26.55C 59.1 26.56 59 26.56 58.91 26.56 58.67 26.56 58.44 26.56 58.2 26.57 58.2 26.57 58.2 23.33 58.2 23.33 58.38 23.33 58.56 23.32 58.74 23.32 58.77 23.32 58.81 23.32 58.84 23.32 59.49 23.31 60.15 23.29 60.8 23.26 60.8 23.26 60.8 26.49 60.8 26.49 60.66 26.5 60.52 26.51 60.38 26.51 59.99 26.53 59.59 26.54 59.19 26.55ZM 56.35 26.56C 56.06 26.56 55.76 26.55 55.46 26.54 55.43 26.54 55.39 26.54 55.36 26.54 55 26.53 54.65 26.51 54.3 26.49 54.3 26.49 54.3 23.26 54.3 23.26 54.95 23.29 55.61 23.31 56.26 23.32 56.3 23.32 56.33 23.32 56.36 23.32 56.54 23.33 56.72 23.33 56.9 23.33 56.9 23.33 56.9 26.57 56.9 26.57 56.77 26.57 56.65 26.57 56.52 26.57 56.47 26.56 56.41 26.56 56.35 26.56ZM 44.61 25.08C 44.59 25.08 44.57 25.07 44.55 25.07 44.55 25.07 44.55 21.94 44.55 21.94 45.16 22.1 45.81 22.25 46.5 22.38 46.5 22.38 46.5 25.55 46.5 25.55 45.9 25.42 45.35 25.29 44.85 25.15 44.77 25.13 44.69 25.11 44.61 25.08ZM 58.31 30.45C 58.49 30.45 58.67 30.46 58.85 30.46 58.85 30.46 58.85 33.7 58.85 33.7 57.95 33.69 57.08 33.67 56.25 33.62 56.25 33.62 56.25 30.39 56.25 30.39 56.9 30.42 57.56 30.44 58.21 30.45 58.24 30.45 58.28 30.45 58.31 30.45ZM 60.79 30.45C 61.44 30.44 62.1 30.42 62.75 30.39 62.75 30.39 62.75 33.62 62.75 33.62 61.92 33.66 61.05 33.69 60.15 33.7 60.15 33.7 60.15 30.46 60.15 30.46 60.33 30.46 60.51 30.45 60.69 30.45 60.72 30.45 60.76 30.45 60.79 30.45ZM 66 30.16C 66 30.16 66 33.38 66 33.38 65.38 33.44 64.73 33.5 64.05 33.55 64.05 33.55 64.05 30.31 64.05 30.31 64.71 30.27 65.36 30.22 66 30.16ZM 67.3 30.02C 67.97 29.94 68.62 29.84 69.25 29.74 69.25 29.74 69.25 32.93 69.25 32.93 68.64 33.03 67.99 33.13 67.3 33.22 67.3 33.22 67.3 30.02 67.3 30.02ZM 70.55 29.51C 71.24 29.38 71.89 29.23 72.5 29.06 72.5 29.06 72.5 32.2 72.5 32.2 71.92 32.36 71.27 32.52 70.55 32.68 70.55 32.68 70.55 29.51 70.55 29.51ZM 48.45 29.51C 48.45 29.51 48.45 32.68 48.45 32.68 47.73 32.52 47.08 32.36 46.5 32.2 46.5 32.2 46.5 29.06 46.5 29.06 47.11 29.23 47.76 29.38 48.45 29.51ZM 49.75 29.74C 50.38 29.85 51.03 29.94 51.7 30.02 51.7 30.02 51.7 33.22 51.7 33.22 51.01 33.13 50.36 33.03 49.75 32.93 49.75 32.93 49.75 29.74 49.75 29.74ZM 53 30.16C 53.64 30.22 54.29 30.27 54.95 30.31 54.95 30.31 54.95 33.55 54.95 33.55 54.27 33.5 53.62 33.44 53 33.38 53 33.38 53 30.16 53 30.16ZM 51.39 26.28C 51.32 26.27 51.26 26.27 51.19 26.26 51.14 26.26 51.1 26.25 51.05 26.25 51.05 26.25 51.05 23.03 51.05 23.03 51.69 23.09 52.34 23.14 53 23.19 53 23.19 53 26.41 53 26.41 52.45 26.38 51.91 26.33 51.39 26.28ZM 49.75 22.89C 49.75 22.89 49.75 26.09 49.75 26.09 49.06 26 48.41 25.9 47.8 25.8 47.8 25.8 47.8 22.61 47.8 22.61 48.43 22.72 49.08 22.81 49.75 22.89ZM 62.53 26.38C 62.39 26.4 62.25 26.41 62.1 26.42 62.1 26.42 62.1 23.18 62.1 23.18 62.76 23.14 63.41 23.09 64.05 23.03 64.05 23.03 64.05 26.25 64.05 26.25 63.65 26.29 63.24 26.33 62.82 26.36 62.72 26.37 62.63 26.38 62.53 26.38ZM 65.35 26.09C 65.35 26.09 65.35 22.89 65.35 22.89 66.02 22.81 66.67 22.72 67.3 22.61 67.3 22.61 67.3 25.8 67.3 25.8 66.69 25.9 66.04 26 65.35 26.09ZM 68.6 22.38C 69.29 22.25 69.94 22.1 70.55 21.93 70.55 21.93 70.55 25.07 70.55 25.07 69.97 25.23 69.32 25.39 68.6 25.55 68.6 25.55 68.6 22.38 68.6 22.38ZM 59.71 19.42C 59.22 19.41 58.74 19.39 58.28 19.37 58.25 19.37 58.22 19.36 58.2 19.36 58.2 19.36 58.2 16.13 58.2 16.13 58.85 16.16 59.51 16.18 60.16 16.19 60.19 16.19 60.23 16.19 60.26 16.19 60.44 16.2 60.62 16.2 60.8 16.2 60.8 16.2 60.8 19.44 60.8 19.44 60.48 19.43 60.16 19.43 59.85 19.42 59.81 19.42 59.76 19.42 59.71 19.42ZM 44.55 10.16C 44.55 10.16 44.55 7.03 44.55 7.03 45.16 7.19 45.81 7.34 46.5 7.48 46.5 7.48 46.5 10.64 46.5 10.64 46.42 10.62 46.34 10.61 46.26 10.59 45.91 10.51 45.58 10.43 45.25 10.35 45.01 10.29 44.77 10.22 44.55 10.16ZM 56.36 8.41C 56.54 8.42 56.72 8.42 56.9 8.42 56.9 8.42 56.9 11.66 56.9 11.66 56.03 11.65 55.16 11.63 54.3 11.58 54.3 11.58 54.3 8.35 54.3 8.35 54.95 8.38 55.61 8.4 56.26 8.41 56.29 8.41 56.33 8.41 56.36 8.41ZM 58.84 8.41C 59.49 8.4 60.15 8.38 60.8 8.35 60.8 8.35 60.8 11.58 60.8 11.58 60.69 11.59 60.58 11.6 60.47 11.6 60.46 11.6 60.45 11.6 60.44 11.6 60.01 11.62 59.56 11.64 59.11 11.65 59.04 11.65 58.97 11.65 58.9 11.65 58.67 11.66 58.43 11.66 58.2 11.66 58.2 11.66 58.2 8.42 58.2 8.42 58.38 8.42 58.56 8.42 58.74 8.41 58.77 8.41 58.81 8.41 58.84 8.41ZM 73.65 8.74C 73.65 8.74 73.63 8.73 73.63 8.73 73.63 8.73 73.4 8.92 73.4 8.92 73.05 9.18 72.53 9.45 71.85 9.71 71.85 9.71 71.85 6.63 71.85 6.63 72.62 6.36 73.28 6.07 73.8 5.74 73.8 5.74 73.8 8.42 73.8 8.42 73.8 8.52 73.75 8.63 73.65 8.74ZM 65.35 11.18C 65.35 11.18 65.35 7.98 65.35 7.98 66.02 7.9 66.67 7.81 67.3 7.71 67.3 7.71 67.3 10.88 67.3 10.88 66.68 10.99 66.03 11.09 65.35 11.18ZM 68.6 10.63C 68.6 10.63 68.6 7.48 68.6 7.48 69.29 7.34 69.94 7.19 70.55 7.03 70.55 7.03 70.55 10.15 70.55 10.15 69.97 10.32 69.31 10.48 68.6 10.63ZM 64.05 8.12C 64.05 8.12 64.05 11.33 64.05 11.33 63.42 11.4 62.77 11.46 62.1 11.51 62.1 11.51 62.1 8.28 62.1 8.28 62.76 8.23 63.41 8.18 64.05 8.12ZM 51.05 11.34C 51.05 11.34 51.05 8.12 51.05 8.12 51.69 8.18 52.34 8.23 53 8.28 53 8.28 53 11.5 53 11.5 52.34 11.46 51.69 11.4 51.05 11.34ZM 49.75 7.98C 49.75 7.98 49.75 11.18 49.75 11.18 49.62 11.17 49.49 11.15 49.36 11.13 49.28 11.12 49.2 11.11 49.12 11.1 48.74 11.04 48.37 10.99 48.01 10.93 47.94 10.91 47.87 10.9 47.8 10.89 47.8 10.89 47.8 7.71 47.8 7.71 48.43 7.81 49.08 7.9 49.75 7.98ZM 56.74 19.28C 56.65 19.27 56.56 19.26 56.48 19.26 56.06 19.22 55.65 19.19 55.26 19.15 55.17 19.14 55.09 19.13 55 19.12 54.98 19.12 54.97 19.12 54.95 19.12 54.95 19.12 54.95 15.9 54.95 15.9 55.59 15.96 56.24 16.01 56.9 16.06 56.9 16.06 56.9 19.29 56.9 19.29 56.85 19.28 56.79 19.28 56.74 19.28ZM 52.44 18.79C 52.19 18.75 51.95 18.71 51.7 18.66 51.7 18.66 51.7 15.48 51.7 15.48 52.33 15.59 52.98 15.68 53.65 15.76 53.65 15.76 53.65 18.96 53.65 18.96 53.25 18.91 52.86 18.86 52.49 18.8 52.47 18.8 52.46 18.79 52.44 18.79ZM 50.4 15.25C 50.4 15.25 50.4 18.41 50.4 18.41 49.68 18.26 49.03 18.09 48.45 17.92 48.45 17.92 48.45 14.8 48.45 14.8 49.06 14.97 49.71 15.12 50.4 15.25ZM 47.15 14.41C 47.15 14.41 47.15 17.49 47.15 17.49 46.13 17.09 45.47 16.69 45.25 16.34 45.25 16.34 45.21 16.26 45.21 16.26 45.21 16.24 45.2 16.22 45.2 16.2 45.2 16.2 45.2 13.52 45.2 13.52 45.72 13.84 46.38 14.14 47.15 14.41ZM 62.74 16.19C 63.39 16.18 64.05 16.16 64.7 16.13 64.7 16.13 64.7 19.36 64.7 19.36 63.85 19.4 62.98 19.43 62.1 19.44 62.1 19.44 62.1 16.2 62.1 16.2 62.28 16.2 62.46 16.2 62.64 16.19 62.67 16.19 62.71 16.19 62.74 16.19ZM 71.14 18.68C 70.85 18.73 70.57 18.78 70.27 18.82 70.1 18.85 69.93 18.87 69.75 18.89 69.59 18.92 69.42 18.94 69.25 18.96 69.25 18.96 69.25 15.76 69.25 15.76 69.92 15.68 70.57 15.59 71.2 15.48 71.2 15.48 71.2 18.67 71.2 18.67 71.18 18.67 71.16 18.67 71.14 18.68ZM 66.74 19.23C 66.5 19.25 66.25 19.26 66 19.28 66 19.28 66 16.06 66 16.06 66.66 16.01 67.31 15.96 67.95 15.9 67.95 15.9 67.95 19.11 67.95 19.11 67.57 19.15 67.2 19.19 66.81 19.22 66.78 19.23 66.76 19.23 66.74 19.23ZM 74.17 18.02C 73.84 18.11 73.5 18.19 73.15 18.27 72.99 18.31 72.82 18.35 72.65 18.38 72.6 18.4 72.55 18.4 72.5 18.42 72.5 18.42 72.5 15.25 72.5 15.25 73.19 15.12 73.84 14.97 74.45 14.81 74.45 14.81 74.45 17.94 74.45 17.94 74.36 17.96 74.26 17.99 74.17 18.02ZM 77.69 11.71C 77.63 12.15 76.63 12.73 74.85 13.28 74.85 13.28 74.85 13.28 74.85 13.28 72.55 13.99 68.95 14.64 64.39 14.84 64.16 14.85 63.92 14.86 63.68 14.87 63.49 14.88 63.3 14.88 63.1 14.89 62.56 14.9 62.01 14.91 61.45 14.91 60.89 14.91 60.34 14.9 59.8 14.89 59.61 14.88 59.41 14.88 59.22 14.87 58.98 14.86 58.74 14.85 58.51 14.84 53.95 14.64 50.35 13.99 48.05 13.28 48.05 13.28 48.05 13.28 48.05 13.28 46.28 12.74 45.28 12.16 45.21 11.72 45.21 11.71 45.21 11.7 45.22 11.68 45.26 11.69 45.31 11.7 45.36 11.71 45.61 11.77 45.87 11.83 46.14 11.89 47.43 12.16 48.86 12.39 50.39 12.56 50.39 12.56 50.4 12.57 50.4 12.57 50.4 12.57 50.4 12.57 50.4 12.57 51.44 12.68 52.52 12.78 53.63 12.84 53.63 12.84 53.64 12.85 53.65 12.85 53.65 12.85 53.66 12.84 53.66 12.84 54.46 12.89 55.27 12.93 56.08 12.94 56.58 12.96 57.07 12.96 57.55 12.96 57.89 12.96 58.24 12.96 58.59 12.95 63.32 12.88 67.69 12.32 70.74 11.45 70.88 11.41 71.02 11.37 71.15 11.33 71.24 11.31 71.32 11.28 71.4 11.26 71.63 11.18 71.86 11.1 72.08 11.02 72.12 11.01 72.15 10.99 72.19 10.98 72.37 10.91 72.55 10.84 72.72 10.77 72.77 10.74 72.82 10.72 72.87 10.7 73.05 10.62 73.22 10.54 73.38 10.45 73.45 10.41 73.52 10.37 73.58 10.33 73.66 10.29 73.74 10.25 73.81 10.2 73.85 10.17 73.9 10.15 73.94 10.12 76.85 10.75 77.62 11.44 77.69 11.71ZM 57.55 1.3C 68.27 1.3 73.69 2.98 73.79 3.94 73.71 4.38 72.71 4.96 70.95 5.51 70.95 5.51 70.95 5.51 70.95 5.51 68.65 6.21 65.05 6.86 60.49 7.06 60.26 7.07 60.02 7.08 59.78 7.09 59.59 7.1 59.4 7.1 59.2 7.11 58.66 7.12 58.11 7.13 57.55 7.13 56.99 7.13 56.44 7.12 55.9 7.11 55.71 7.1 55.51 7.1 55.32 7.09 55.08 7.08 54.84 7.07 54.61 7.06 50.05 6.86 46.45 6.21 44.15 5.51 44.15 5.51 44.15 5.51 44.15 5.51 42.39 4.96 41.39 4.38 41.31 3.94 41.41 2.98 46.83 1.3 57.55 1.3ZM 41.3 8.42C 41.3 8.42 41.3 5.74 41.3 5.74 41.82 6.07 42.48 6.36 43.25 6.63 43.25 6.63 43.25 9.73 43.25 9.73 41.99 9.26 41.3 8.79 41.3 8.42ZM 44.45 17.39C 44.46 17.4 44.47 17.41 44.48 17.42 45.37 18.32 47.22 19.02 49.51 19.55 49.56 19.56 49.62 19.57 49.67 19.58 49.84 19.62 50.01 19.66 50.18 19.69 52.29 20.14 54.81 20.46 57.54 20.62 57.55 20.62 57.55 20.63 57.55 20.63 57.55 20.63 57.55 20.62 57.55 20.62 58.43 20.68 59.33 20.71 60.25 20.73 60.66 20.74 61.06 20.74 61.45 20.74 61.9 20.74 62.36 20.74 62.83 20.72 63.68 20.71 64.51 20.67 65.34 20.62 65.34 20.62 65.35 20.63 65.35 20.63 65.36 20.63 65.36 20.62 65.37 20.62 68.11 20.46 70.69 20.13 72.87 19.66 72.4 19.91 71.75 20.17 70.95 20.41 70.95 20.41 70.95 20.41 70.95 20.41 68.52 21.16 64.64 21.84 59.71 22 59.57 22.01 59.42 22.01 59.28 22.01 59.12 22.02 58.95 22.02 58.79 22.02 58.38 22.03 57.97 22.04 57.55 22.04 56.99 22.04 56.44 22.03 55.9 22.02 55.71 22.01 55.51 22.01 55.32 22 55.08 21.99 54.84 21.98 54.61 21.97 50.05 21.77 46.45 21.12 44.15 20.41 44.15 20.41 44.15 20.41 44.15 20.41 42.37 19.86 41.36 19.28 41.31 18.84 41.38 18.59 42.04 17.98 44.45 17.39ZM 41.3 23.33C 41.3 23.33 41.3 20.65 41.3 20.65 41.82 20.97 42.48 21.27 43.25 21.54 43.25 21.54 43.25 24.63 43.25 24.63 43.25 24.63 42.88 24.49 42.88 24.49 42.88 24.49 42.87 24.49 42.87 24.49 41.85 24.07 41.3 23.66 41.3 23.33ZM 43.25 30.46C 43.25 30.46 43.25 27.78 43.25 27.78 43.77 28.1 44.43 28.4 45.2 28.67 45.2 28.67 45.2 31.77 45.2 31.77 43.94 31.3 43.25 30.83 43.25 30.46ZM 73.8 31.77C 73.8 31.77 73.8 28.67 73.8 28.67 74.57 28.4 75.23 28.1 75.75 27.78 75.75 27.78 75.75 30.46 75.75 30.46 75.75 30.82 75.06 31.3 73.8 31.77ZM 75.74 25.98C 75.67 26.41 74.67 27 72.9 27.54 72.9 27.54 72.9 27.54 72.9 27.54 70.6 28.25 67 28.9 62.44 29.1 62.21 29.11 61.97 29.12 61.73 29.13 61.54 29.14 61.35 29.14 61.15 29.15 60.61 29.16 60.06 29.17 59.5 29.17 58.94 29.17 58.39 29.16 57.85 29.15 57.66 29.14 57.46 29.13 57.27 29.13 57.03 29.12 56.8 29.11 56.56 29.1 52 28.9 48.4 28.25 46.1 27.54 46.1 27.54 46.1 27.54 46.1 27.54 44.38 27.01 43.39 26.45 43.27 26.02 43.46 26.08 43.66 26.15 43.87 26.21 43.89 26.22 43.91 26.23 43.93 26.23 44.1 26.29 44.28 26.34 44.47 26.39 44.54 26.41 44.61 26.43 44.68 26.45 44.78 26.47 44.89 26.5 45 26.53 47.36 27.13 50.38 27.56 53.65 27.75 53.65 27.75 53.65 27.75 53.65 27.75 53.65 27.75 53.65 27.75 53.65 27.75 54.66 27.81 55.69 27.85 56.73 27.86 57.01 27.87 57.28 27.87 57.55 27.87 57.91 27.87 58.27 27.87 58.65 27.86 59.59 27.84 60.53 27.81 61.45 27.75 61.45 27.75 61.45 27.76 61.45 27.76 61.45 27.76 61.46 27.75 61.46 27.75 62.57 27.69 63.65 27.59 64.69 27.47 64.69 27.47 64.7 27.47 64.7 27.47 64.71 27.47 64.73 27.47 64.74 27.47 65.9 27.33 66.99 27.17 68.01 26.98 68.22 26.94 68.42 26.9 68.63 26.86 68.67 26.85 68.72 26.84 68.76 26.83 70.68 26.44 72.34 25.93 73.48 25.3 73.55 25.27 73.6 25.23 73.66 25.2 73.73 25.16 73.8 25.11 73.87 25.07 73.93 25.03 74.01 24.99 74.06 24.95 75.35 25.4 75.7 25.81 75.74 25.98ZM 75.75 17.51C 75.75 17.51 75.75 14.41 75.75 14.41 76.52 14.14 77.18 13.84 77.7 13.52 77.7 13.52 77.7 16.2 77.7 16.2 77.7 16.56 77.01 17.04 75.75 17.51Z" fill="rgb(97,159,209)"/></svg>