<?xml version="1.0" encoding="utf-8"?>
<svg xmlns="http://www.w3.org/2000/svg"
	xmlns:xlink="http://www.w3.org/1999/xlink"
	width="165px" height="143px" viewBox="0 0 165 143">
<path fillRule="evenodd" d="M 158.48 75.66C 157.81 74.93 157.11 74.26 156.37 73.63 162.09 64.22 164.88 55.03 164.88 45.66 164.88 33.54 160.67 22.2 153.04 13.73 145.05 4.87 133.98-0 121.87-0 108.45-0 96.46 6.28 87.18 18.15 85.32 20.54 83.75 22.93 82.44 25.14 81.13 22.93 79.56 20.54 77.69 18.15 68.42 6.28 56.43-0 43.01-0 30.9-0 19.83 4.88 11.84 13.73 4.21 22.2-0 33.53-0 45.66-0 59.44 5.96 72.7 18.75 87.4 30.05 100.38 46.03 113.87 64.54 129.5 69.18 133.42 73.98 137.47 78.94 141.71 79.95 142.57 81.19 143 82.44 143 83.68 143 84.93 142.57 85.94 141.71 90.89 137.47 95.69 133.42 100.33 129.5 100.93 129 101.51 128.5 102.1 128.01 105 130.51 108.09 133.09 111.35 135.81 113.62 137.71 115.97 139.67 118.39 141.72 119.39 142.57 120.63 143 121.87 143 123.1 143 124.34 142.57 125.35 141.72 127.77 139.67 130.12 137.71 132.39 135.81 151.32 119.99 165 108.55 165 93.02 165 86.44 162.68 80.28 158.48 75.66ZM 82.44 130.58C 78.69 127.39 75.04 124.31 71.49 121.31 53.32 105.97 37.63 92.72 26.87 80.36 15.72 67.56 10.75 56.86 10.75 45.66 10.75 25.74 24.62 10.72 43.01 10.72 53.04 10.72 61.79 15.36 69.03 24.51 74.75 31.74 77.32 39.18 77.34 39.24 78.08 41.42 80.12 42.89 82.43 42.89 82.43 42.89 82.44 42.89 82.44 42.89 84.74 42.89 86.79 41.43 87.53 39.25 87.56 39.18 90.13 31.74 95.85 24.51 103.09 15.36 111.84 10.72 121.87 10.72 140.26 10.72 154.13 25.74 154.13 45.66 154.13 53.34 151.77 60.76 146.76 68.76 144.97 68.33 143.1 68.11 141.18 68.11 131.89 68.11 125.69 73.22 121.87 78.18 118.04 73.22 111.84 68.11 102.55 68.11 95.84 68.11 89.7 70.79 85.26 75.66 81.05 80.28 78.73 86.44 78.73 93.02 78.73 103.23 84.64 111.66 94.07 120.74 93.84 120.93 86.18 127.4 82.44 130.58ZM 125.48 127.59C 124.3 128.58 123.09 129.59 121.87 130.62 120.64 129.59 119.44 128.58 118.25 127.59 101.55 113.63 89.49 103.55 89.49 93.02 89.49 84.93 95.1 78.83 102.55 78.83 112.44 78.83 116.59 90.26 116.78 90.82 117.53 92.98 119.56 94.45 121.86 94.45 124.17 94.45 126.21 93 126.95 90.82 127.12 90.33 131.27 78.83 141.18 78.83 148.63 78.83 154.25 84.93 154.25 93.02 154.25 103.55 142.18 113.63 125.48 127.59Z" fill="rgb(255,255,255)"/></svg>