<?xml version="1.0" encoding="utf-8"?>
<svg xmlns="http://www.w3.org/2000/svg"
	xmlns:xlink="http://www.w3.org/1999/xlink"
	width="460px" height="60px" viewBox="0 0 460 60">
<path fillRule="evenodd" d="M 460.09 50.31C 460.09 48.03 458.25 46.18 455.99 46.18 454.51 46.18 453.22 46.97 452.5 48.15 451.78 46.97 450.49 46.18 449.01 46.18 446.75 46.18 444.91 48.03 444.91 50.31 444.91 51.56 445.46 52.67 446.32 53.43 446.32 53.43 452.13 59.3 452.13 59.3 452.22 59.4 452.36 59.45 452.5 59.45 452.64 59.45 452.77 59.4 452.87 59.3 452.87 59.3 458.68 53.43 458.68 53.43 459.54 52.67 460.09 51.56 460.09 50.31Z" fill="rgb(255,255,255)"/><path fillRule="evenodd" d="M 445.06 3.97C 445.06 1.84 443.35 0.12 441.25 0.12 439.87 0.12 438.67 0.85 438 1.96 437.33 0.85 436.13 0.12 434.75 0.12 432.65 0.12 430.94 1.84 430.94 3.97 430.94 5.13 431.45 6.16 432.25 6.87 432.25 6.87 437.65 12.32 437.65 12.32 437.74 12.42 437.87 12.47 438 12.47 438.13 12.47 438.26 12.42 438.35 12.32 438.35 12.32 443.75 6.87 443.75 6.87 444.55 6.16 445.06 5.13 445.06 3.97Z" fill="rgb(179,183,186)"/><path fillRule="evenodd" d="M 280.37 56.09C 280.37 56.09 256.8 56.09 256.8 56.09 248.8 56.09 242.28 49.53 242.28 41.46 242.28 41.46 242.28 17.72 242.28 17.72 242.28 9.66 248.8 3.09 256.8 3.09 256.8 3.09 280.37 3.09 280.37 3.09 288.37 3.09 294.88 9.66 294.88 17.72 294.88 17.72 294.88 41.46 294.88 41.46 294.88 49.53 288.37 56.09 280.37 56.09ZM 290.21 41.46C 290.21 41.46 290.21 17.72 290.21 17.72 290.21 12.25 285.8 7.8 280.37 7.8 280.37 7.8 256.8 7.8 256.8 7.8 251.37 7.8 246.95 12.25 246.95 17.72 246.95 17.72 246.95 41.46 246.95 41.46 246.95 46.94 251.37 51.39 256.8 51.39 256.8 51.39 280.37 51.39 280.37 51.39 285.8 51.39 290.21 46.94 290.21 41.46 290.21 41.46 290.21 41.46 290.21 41.46ZM 282.7 18.85C 281.8 18.85 280.92 18.48 280.29 17.84 279.65 17.19 279.28 16.3 279.28 15.4 279.28 14.49 279.65 13.6 280.29 12.96 280.92 12.32 281.8 11.95 282.7 11.95 283.61 11.95 284.49 12.32 285.12 12.96 285.76 13.6 286.13 14.49 286.13 15.4 286.13 16.3 285.76 17.19 285.12 17.84 284.49 18.48 283.61 18.85 282.7 18.85ZM 268.58 43.25C 261.11 43.25 255.03 37.12 255.03 29.59 255.03 22.06 261.11 15.94 268.58 15.94 276.06 15.94 282.13 22.06 282.13 29.59 282.13 37.12 276.06 43.25 268.58 43.25ZM 268.58 20.64C 263.68 20.64 259.7 24.66 259.7 29.59 259.7 34.53 263.68 38.54 268.58 38.54 273.48 38.54 277.47 34.53 277.47 29.59 277.47 24.66 273.48 20.64 268.58 20.64Z" fill="rgb(255,255,255)"/><path fillRule="evenodd" d="M 360.34 12.12C 358.06 13.1 355.79 13.71 353.51 13.96 356.08 12.41 357.82 10.23 358.73 7.42 356.37 8.81 353.86 9.77 351.19 10.28 348.84 7.78 345.95 6.53 342.52 6.53 339.24 6.53 336.44 7.69 334.13 10.01 331.81 12.32 330.66 15.12 330.66 18.4 330.66 19.28 330.75 20.19 330.95 21.12 326.1 20.87 321.55 19.66 317.3 17.46 313.05 15.27 309.44 12.35 306.48 8.7 305.4 10.54 304.86 12.53 304.86 14.69 304.86 16.72 305.34 18.61 306.3 20.35 307.25 22.09 308.54 23.5 310.15 24.57 308.24 24.5 306.46 24 304.79 23.07 304.79 23.07 304.79 23.21 304.79 23.21 304.79 26.08 305.69 28.6 307.49 30.76 309.29 32.93 311.56 34.3 314.31 34.86 313.28 35.13 312.24 35.26 311.18 35.26 310.5 35.26 309.75 35.2 308.94 35.08 309.7 37.46 311.1 39.41 313.13 40.94 315.16 42.47 317.47 43.26 320.04 43.31 315.73 46.69 310.82 48.38 305.3 48.38 304.25 48.38 303.3 48.33 302.44 48.23 307.95 51.79 314.02 53.56 320.66 53.56 324.88 53.56 328.83 52.89 332.53 51.56 336.23 50.22 339.39 48.44 342.01 46.19 344.63 43.95 346.89 41.38 348.79 38.46 350.69 35.54 352.1 32.5 353.03 29.33 353.96 26.16 354.43 22.98 354.43 19.8 354.43 19.11 354.41 18.6 354.39 18.25 356.72 16.56 358.7 14.52 360.34 12.12Z" fill="rgb(255,255,255)"/><path fillRule="evenodd" d="M 384.89 16.84C 384.87 16.78 384.85 16.74 384.83 16.7 384.48 16.04 383.82 15.24 382.84 14.28 382.84 14.28 382.82 14.26 382.82 14.26 382.82 14.26 382.81 14.25 382.81 14.25 382.81 14.25 382.79 14.24 382.79 14.24 382.79 14.24 382.78 14.24 382.78 14.24 382.34 13.79 382.06 13.49 381.94 13.34 381.73 13.05 381.68 12.75 381.8 12.45 381.88 12.22 382.19 11.75 382.73 11.02 383.02 10.63 383.24 10.32 383.41 10.09 384.61 8.41 385.13 7.33 384.97 6.86 384.97 6.86 384.91 6.76 384.91 6.76 384.87 6.69 384.76 6.63 384.59 6.57 384.41 6.52 384.19 6.51 383.92 6.55 383.92 6.55 380.92 6.57 380.92 6.57 380.87 6.55 380.8 6.55 380.71 6.57 380.62 6.6 380.58 6.61 380.58 6.61 380.58 6.61 380.53 6.64 380.53 6.64 380.53 6.64 380.48 6.67 380.48 6.67 380.45 6.69 380.41 6.73 380.37 6.78 380.33 6.84 380.29 6.9 380.27 6.97 379.94 7.86 379.57 8.68 379.15 9.44 378.89 9.89 378.66 10.28 378.44 10.62 378.23 10.95 378.05 11.19 377.9 11.35 377.76 11.51 377.62 11.63 377.51 11.73 377.39 11.82 377.3 11.86 377.24 11.85 377.17 11.83 377.11 11.82 377.06 11.81 376.96 11.74 376.88 11.65 376.82 11.54 376.76 11.42 376.72 11.28 376.7 11.11 376.68 10.94 376.67 10.79 376.67 10.67 376.66 10.54 376.67 10.37 376.67 10.14 376.68 9.91 376.68 9.76 376.68 9.68 376.68 9.4 376.69 9.1 376.7 8.78 376.71 8.45 376.72 8.19 376.72 8 376.73 7.81 376.74 7.61 376.74 7.4 376.74 7.19 376.72 7.02 376.7 6.9 376.67 6.78 376.64 6.67 376.59 6.55 376.54 6.44 376.47 6.35 376.38 6.29 376.28 6.23 376.17 6.18 376.03 6.14 375.66 6.05 375.19 6.01 374.62 6 373.33 5.98 372.5 6.07 372.13 6.26 371.99 6.34 371.86 6.45 371.74 6.59 371.61 6.75 371.6 6.84 371.69 6.85 372.1 6.92 372.4 7.08 372.57 7.32 372.57 7.32 372.63 7.46 372.63 7.46 372.68 7.55 372.73 7.72 372.78 7.96 372.83 8.2 372.86 8.47 372.87 8.76 372.91 9.29 372.91 9.75 372.87 10.13 372.84 10.51 372.81 10.8 372.77 11.02 372.74 11.23 372.7 11.4 372.63 11.53 372.57 11.66 372.53 11.74 372.51 11.77 372.49 11.8 372.47 11.82 372.46 11.83 372.37 11.86 372.27 11.88 372.17 11.88 372.08 11.88 371.96 11.83 371.82 11.73 371.68 11.63 371.54 11.49 371.39 11.31 371.24 11.13 371.07 10.88 370.88 10.56 370.7 10.23 370.5 9.86 370.3 9.42 370.3 9.42 370.13 9.1 370.13 9.1 370.03 8.89 369.89 8.6 369.71 8.21 369.53 7.82 369.37 7.44 369.23 7.07 369.17 6.92 369.09 6.8 368.98 6.72 368.98 6.72 368.93 6.69 368.93 6.69 368.89 6.66 368.84 6.63 368.76 6.6 368.68 6.56 368.6 6.54 368.52 6.52 368.52 6.52 365.67 6.55 365.67 6.55 365.38 6.55 365.18 6.62 365.07 6.75 365.07 6.75 365.03 6.82 365.03 6.82 365.01 6.86 365 6.92 365 7 365 7.08 365.02 7.17 365.06 7.29 365.48 8.32 365.93 9.31 366.42 10.27 366.91 11.23 367.34 12 367.7 12.58 368.06 13.17 368.43 13.72 368.8 14.24 369.18 14.76 369.42 15.09 369.55 15.23 369.67 15.38 369.76 15.49 369.83 15.56 369.83 15.56 370.09 15.82 370.09 15.82 370.26 16 370.5 16.21 370.83 16.45 371.15 16.7 371.51 16.94 371.9 17.18 372.29 17.41 372.75 17.61 373.27 17.76 373.79 17.91 374.3 17.97 374.79 17.94 374.79 17.94 375.99 17.94 375.99 17.94 376.23 17.92 376.41 17.84 376.54 17.7 376.54 17.7 376.58 17.64 376.58 17.64 376.61 17.6 376.63 17.53 376.66 17.44 376.68 17.35 376.69 17.25 376.69 17.14 376.69 16.83 376.71 16.54 376.76 16.29 376.81 16.04 376.87 15.85 376.94 15.72 377 15.59 377.08 15.49 377.16 15.4 377.25 15.31 377.3 15.26 377.34 15.24 377.37 15.22 377.4 15.21 377.42 15.2 377.59 15.14 377.79 15.2 378.01 15.37 378.24 15.54 378.45 15.75 378.65 16.01 378.84 16.26 379.08 16.54 379.36 16.86 379.64 17.17 379.88 17.4 380.09 17.56 380.09 17.56 380.3 17.69 380.3 17.69 380.44 17.78 380.62 17.86 380.84 17.93 381.06 18 381.25 18.02 381.42 17.98 381.42 17.98 384.09 17.94 384.09 17.94 384.35 17.94 384.55 17.89 384.7 17.8 384.85 17.71 384.93 17.61 384.96 17.5 384.99 17.39 384.99 17.27 384.97 17.13 384.94 16.99 384.92 16.89 384.89 16.84Z" fill="rgb(81,129,183)"/><path fillRule="evenodd" d="M 405.03 21C 405.03 21 396.97 21 396.97 21 394.23 21 392 18.77 392 16.03 392 16.03 392 7.97 392 7.97 392 5.23 394.23 3 396.97 3 396.97 3 405.03 3 405.03 3 407.77 3 410 5.23 410 7.97 410 7.97 410 16.03 410 16.03 410 18.77 407.77 21 405.03 21ZM 408.4 16.03C 408.4 16.03 408.4 7.97 408.4 7.97 408.4 6.11 406.89 4.6 405.03 4.6 405.03 4.6 396.97 4.6 396.97 4.6 395.11 4.6 393.6 6.11 393.6 7.97 393.6 7.97 393.6 16.03 393.6 16.03 393.6 17.89 395.11 19.4 396.97 19.4 396.97 19.4 405.03 19.4 405.03 19.4 406.89 19.4 408.4 17.89 408.4 16.03 408.4 16.03 408.4 16.03 408.4 16.03ZM 405.83 8.35C 405.52 8.35 405.22 8.22 405.01 8.01 404.79 7.79 404.66 7.49 404.66 7.18 404.66 6.87 404.79 6.57 405.01 6.35 405.22 6.13 405.52 6.01 405.83 6.01 406.14 6.01 406.44 6.13 406.66 6.35 406.88 6.57 407 6.87 407 7.18 407 7.49 406.88 7.79 406.66 8.01 406.44 8.22 406.14 8.35 405.83 8.35ZM 401 16.64C 398.44 16.64 396.36 14.56 396.36 12 396.36 9.44 398.44 7.36 401 7.36 403.56 7.36 405.64 9.44 405.64 12 405.64 14.56 403.56 16.64 401 16.64ZM 401 8.96C 399.32 8.96 397.96 10.32 397.96 12 397.96 13.68 399.32 15.04 401 15.04 402.68 15.04 404.04 13.68 404.04 12 404.04 10.32 402.68 8.96 401 8.96Z" fill="rgb(237,61,129)"/><path fillRule="evenodd" d="M 430.26 11.19C 430.14 11.32 429.97 11.39 429.76 11.39 429.76 11.39 429.74 11.38 429.74 11.38 429.07 11.37 429.06 10.74 429.06 10.44 429.06 10.35 429.05 10.27 429.05 10.21 428.56 6.33 426.81 4.5 423.01 3.91 422.96 3.9 422.89 3.9 422.82 3.89 422.54 3.87 421.95 3.83 421.98 3.21 422 2.94 422.12 2.5 422.74 2.5 422.81 2.5 422.88 2.5 422.94 2.5 422.99 2.51 423.04 2.51 423.08 2.51 423.11 2.51 423.12 2.51 423.13 2.51 423.14 2.51 423.16 2.51 423.18 2.51 427.09 2.64 430.48 6.24 430.43 10.21 430.43 10.26 430.44 10.32 430.44 10.38 430.45 10.65 430.47 10.98 430.26 11.19ZM 423.39 7.05C 423.98 7.03 424.62 7.34 425.16 7.89 425.69 8.44 426 9.12 426 9.73 426.01 10.31 425.81 10.63 425.37 10.68 425.35 10.69 425.32 10.69 425.29 10.69 425.29 10.69 425.29 10.69 425.29 10.69 424.94 10.69 424.66 10.39 424.62 9.97 424.53 9.08 424.08 8.59 423.22 8.45 422.98 8.41 422.72 8.34 422.58 8.11 422.49 7.95 422.48 7.76 422.55 7.54 422.71 7.06 423.17 7.05 423.39 7.05ZM 422.27 5.33C 422.3 5.11 422.45 4.73 422.97 4.73 423.11 4.73 423.24 4.76 423.37 4.78 423.43 4.79 423.48 4.8 423.53 4.8 426.11 5.12 428.19 7.38 428.17 9.85 428.17 9.86 428.17 9.88 428.17 9.89 428.16 9.93 428.16 10 428.16 10.07 428.17 10.33 428.19 10.85 427.62 10.94 427.56 10.95 427.51 10.95 427.46 10.95 426.84 10.95 426.81 10.38 426.79 10.1 426.79 10.02 426.78 9.95 426.77 9.9 426.39 7.57 425.61 6.75 423.3 6.23 423.24 6.21 423.17 6.2 423.1 6.19 422.85 6.16 422.54 6.12 422.37 5.88 422.27 5.73 422.23 5.55 422.27 5.33ZM 422.61 14.66C 422.83 14.76 423.03 14.81 423.21 14.81 423.5 14.81 423.75 14.66 423.95 14.35 424.4 13.66 424.94 13.31 425.57 13.31 426.03 13.31 426.52 13.5 427.07 13.89 427.16 13.95 427.25 14.02 427.34 14.08 427.76 14.38 428.2 14.69 428.62 15.03 428.7 15.09 428.78 15.16 428.86 15.22 429.47 15.69 430.24 16.28 429.82 17.47 429.34 18.83 427.79 20.03 426.5 20.03 426.5 20.03 426.5 20.03 426.5 20.03 426.5 20.03 426.48 20.03 426.48 20.03 426.46 20.03 426.44 20.03 426.41 20.02 426.37 20.01 426.32 20 426.25 19.98 426.06 19.94 425.8 19.88 425.56 19.77 422.81 18.58 420.45 16.98 418.52 15.04 416.55 13.06 414.99 10.65 413.88 7.89 413.5 6.94 413.48 6.02 413.83 5.24 414.2 4.43 414.93 3.82 415.96 3.47 416.36 3.33 416.76 3.33 417.14 3.47 418.03 3.81 420.14 6.72 420.19 7.69 420.24 8.54 419.59 8.99 419.24 9.23 418.63 9.65 418.51 10.17 418.86 10.96 419.58 12.6 420.84 13.85 422.61 14.66Z" fill="rgb(255,255,255)"/><path fillRule="evenodd" d="M 368.19 33.49C 368.19 33.49 373.19 35.3 373.19 35.3 373.19 35.3 375.13 41.34 375.13 41.34 375.25 41.72 375.74 41.87 376.06 41.61 376.06 41.61 378.85 39.41 378.85 39.41 379.14 39.18 379.56 39.16 379.87 39.38 379.87 39.38 384.9 42.92 384.9 42.92 385.24 43.16 385.73 42.98 385.82 42.57 385.82 42.57 389.5 25.39 389.5 25.39 389.6 24.94 389.15 24.57 388.71 24.74 388.71 24.74 368.18 32.42 368.18 32.42 367.68 32.61 367.68 33.3 368.19 33.49ZM 374.82 34.33C 374.82 34.33 384.59 28.5 384.59 28.5 384.77 28.39 384.95 28.62 384.8 28.76 384.8 28.76 376.73 36.03 376.73 36.03 376.45 36.29 376.26 36.63 376.21 37 376.21 37 375.94 38.98 375.94 38.98 375.9 39.24 375.52 39.27 375.44 39.01 375.44 39.01 374.39 35.41 374.39 35.41 374.27 35 374.44 34.56 374.82 34.33Z" fill="rgb(255,255,255)"/><path fillRule="evenodd" d="M 419 22.73C 409.63 22.73 402 30.29 402 39.58 402 42.52 402.78 45.41 404.25 47.95 404.25 47.95 401.45 56.25 401.45 56.25 401.39 56.45 401.44 56.66 401.58 56.82 401.69 56.94 401.84 57 402 57 402.05 57 402.1 56.99 402.15 56.98 402.15 56.98 411.29 54.6 411.29 54.6 413.67 55.79 416.33 56.43 419 56.43 428.37 56.43 436 48.87 436 39.58 436 30.29 428.37 22.73 419 22.73ZM 429.61 47.23C 429.61 47.23 428.6 48.23 428.6 48.23 427.32 49.5 425.89 50.14 424.35 50.14 424.35 50.14 424.35 50.14 424.35 50.14 422.29 50.14 420.05 48.97 417.72 46.66 417.72 46.66 411.85 40.84 411.85 40.84 410.01 39.02 408.88 37.25 408.49 35.58 408.02 33.56 408.62 31.7 410.27 30.07 410.27 30.07 411.28 29.06 411.28 29.06 411.93 28.42 412.99 28.26 413.8 28.69 415.34 29.49 416.93 32.13 417.1 32.43 417.42 32.98 417.52 33.55 417.38 34.04 417.28 34.41 417.04 34.72 416.7 34.93 416.23 35.31 415.69 35.79 415.59 35.92 415 36.77 415.07 37.43 415.83 38.18 415.83 38.18 420.41 42.72 420.41 42.72 421.17 43.48 421.83 43.54 422.7 42.95 422.82 42.86 423.3 42.32 423.69 41.86 423.99 41.38 424.46 41.12 425.04 41.12 425.42 41.12 425.83 41.24 426.21 41.45 426.52 41.63 429.18 43.21 429.99 44.73 430.43 45.56 430.28 46.56 429.61 47.23Z" fill="rgb(75,215,91)"/><path fillRule="evenodd" d="M 361.32 52.23C 361.32 52.23 367.24 46.32 367.24 46.32 367.67 45.89 368.36 45.89 368.79 46.32 369.22 46.75 369.22 47.44 368.79 47.87 368.79 47.87 364.74 51.9 364.74 51.9 364.74 51.9 377.9 51.9 377.9 51.9 378.51 51.9 379 52.39 379 53 379 53.6 378.51 54.09 377.9 54.09 377.9 54.09 364.74 54.09 364.74 54.09 364.74 54.09 368.79 58.13 368.79 58.13 369.22 58.56 369.22 59.25 368.79 59.68 368.57 59.89 368.29 60 368.01 60 367.73 60 367.45 59.89 367.24 59.68 367.24 59.68 361.32 53.77 361.32 53.77 360.89 53.35 360.89 52.65 361.32 52.23Z" fill="rgb(127,143,155)"/><path fillRule="evenodd" d="M 397.71 52.21C 397.71 52.21 391.78 46.29 391.78 46.29 391.35 45.86 390.66 45.86 390.23 46.29 389.8 46.72 389.8 47.41 390.23 47.84 390.23 47.84 394.28 51.89 394.28 51.89 394.28 51.89 381.1 51.89 381.1 51.89 380.49 51.89 380 52.38 380 52.98 380 53.59 380.49 54.08 381.1 54.08 381.1 54.08 394.28 54.08 394.28 54.08 394.28 54.08 390.23 58.13 390.23 58.13 389.8 58.56 389.8 59.25 390.23 59.68 390.44 59.89 390.72 60 391.01 60 391.29 60 391.57 59.89 391.78 59.68 391.78 59.68 397.71 53.76 397.71 53.76 398.14 53.33 398.14 52.64 397.71 52.21Z" fill="rgb(127,143,155)"/><path fillRule="evenodd" d="M 232.64 47.19C 232.55 46.99 232.46 46.82 232.38 46.69 231.06 44.3 228.53 41.37 224.79 37.89 224.79 37.89 224.71 37.81 224.71 37.81 224.71 37.81 224.67 37.77 224.67 37.77 224.67 37.77 224.63 37.73 224.63 37.73 224.63 37.73 224.59 37.73 224.59 37.73 222.9 36.11 221.83 35.02 221.38 34.46 220.55 33.4 220.37 32.32 220.82 31.23 221.14 30.41 222.33 28.67 224.39 26.01 225.48 24.61 226.34 23.48 226.98 22.63 231.56 16.52 233.54 12.62 232.93 10.92 232.93 10.92 232.7 10.52 232.7 10.52 232.54 10.28 232.13 10.06 231.47 9.86 230.8 9.66 229.96 9.63 228.92 9.76 228.92 9.76 217.48 9.84 217.48 9.84 217.3 9.78 217.03 9.78 216.69 9.86 216.34 9.94 216.17 9.98 216.17 9.98 216.17 9.98 215.97 10.08 215.97 10.08 215.97 10.08 215.82 10.2 215.82 10.2 215.68 10.28 215.54 10.42 215.38 10.62 215.22 10.82 215.09 11.05 214.98 11.32 213.74 14.53 212.32 17.52 210.73 20.28 209.75 21.93 208.85 23.35 208.03 24.56 207.21 25.77 206.52 26.66 205.96 27.23 205.41 27.8 204.91 28.26 204.45 28.61 204 28.95 203.66 29.1 203.42 29.04 203.18 28.99 202.96 28.94 202.75 28.88 202.38 28.65 202.08 28.32 201.85 27.91 201.63 27.5 201.47 26.98 201.4 26.35 201.32 25.73 201.27 25.19 201.26 24.74 201.24 24.29 201.25 23.65 201.28 22.83 201.3 22 201.32 21.45 201.32 21.15 201.32 20.15 201.34 19.05 201.38 17.87 201.42 16.69 201.45 15.75 201.47 15.06 201.5 14.37 201.51 13.64 201.51 12.87 201.51 12.1 201.47 11.49 201.38 11.06 201.28 10.62 201.14 10.19 200.96 9.78 200.77 9.37 200.5 9.05 200.15 8.82 199.79 8.6 199.34 8.42 198.81 8.29 197.41 7.97 195.62 7.8 193.45 7.77 188.53 7.72 185.36 8.04 183.96 8.73 183.4 9.02 182.9 9.42 182.45 9.92 181.97 10.5 181.9 10.82 182.25 10.88 183.84 11.12 184.96 11.69 185.62 12.59 185.62 12.59 185.86 13.07 185.86 13.07 186.05 13.41 186.23 14.02 186.42 14.9 186.6 15.78 186.72 16.75 186.78 17.81 186.91 19.75 186.91 21.41 186.78 22.79 186.64 24.17 186.52 25.24 186.4 26.02 186.28 26.79 186.1 27.41 185.86 27.89 185.62 28.37 185.47 28.66 185.39 28.76 185.31 28.87 185.24 28.94 185.19 28.96 184.84 29.09 184.49 29.16 184.12 29.16 183.74 29.16 183.29 28.98 182.76 28.6 182.24 28.23 181.69 27.72 181.12 27.07 180.55 26.42 179.9 25.51 179.19 24.34 178.47 23.17 177.73 21.79 176.97 20.2 176.97 20.2 176.33 19.04 176.33 19.04 175.93 18.3 175.39 17.22 174.7 15.8 174.01 14.37 173.4 13 172.87 11.67 172.66 11.11 172.34 10.69 171.92 10.4 171.92 10.4 171.72 10.28 171.72 10.28 171.59 10.17 171.38 10.06 171.09 9.94 170.79 9.82 170.49 9.73 170.17 9.68 170.17 9.68 159.29 9.76 159.29 9.76 158.18 9.76 157.42 10.01 157.02 10.52 157.02 10.52 156.86 10.76 156.86 10.76 156.79 10.89 156.75 11.1 156.75 11.39 156.75 11.69 156.82 12.04 156.98 12.47 158.57 16.21 160.3 19.83 162.17 23.31 164.03 26.78 165.66 29.59 167.03 31.71 168.41 33.84 169.81 35.84 171.24 37.73 172.67 39.61 173.62 40.82 174.08 41.35 174.55 41.88 174.91 42.28 175.18 42.55 175.18 42.55 176.17 43.5 176.17 43.5 176.81 44.14 177.74 44.9 178.97 45.79 180.2 46.68 181.57 47.56 183.06 48.42 184.56 49.29 186.3 49.99 188.29 50.53 190.27 51.08 192.21 51.3 194.09 51.19 194.09 51.19 198.65 51.19 198.65 51.19 199.58 51.11 200.28 50.82 200.76 50.32 200.76 50.32 200.92 50.12 200.92 50.12 201.02 49.96 201.12 49.71 201.22 49.38 201.31 49.05 201.36 48.68 201.36 48.28 201.33 47.14 201.41 46.11 201.61 45.2 201.81 44.28 202.04 43.59 202.29 43.13 202.54 42.66 202.83 42.27 203.14 41.95 203.46 41.63 203.69 41.44 203.82 41.37 203.95 41.31 204.06 41.26 204.14 41.23 204.77 41.02 205.52 41.23 206.38 41.85 207.24 42.48 208.05 43.25 208.8 44.16 209.56 45.08 210.47 46.11 211.53 47.25 212.59 48.39 213.51 49.24 214.31 49.8 214.31 49.8 215.1 50.28 215.1 50.28 215.63 50.6 216.32 50.89 217.17 51.15 218.01 51.42 218.75 51.49 219.39 51.35 219.39 51.35 229.56 51.19 229.56 51.19 230.57 51.19 231.35 51.03 231.9 50.7 232.46 50.36 232.79 50 232.9 49.6 233 49.2 233.01 48.75 232.92 48.25 232.82 47.74 232.73 47.39 232.64 47.19Z" fill="rgb(255,255,255)"/><path fillRule="evenodd" d="M 17.1 20.1C 17.1 20.1 9.9 20.1 9.9 20.1 9.9 20.1 9.9 12.9 9.9 12.9 9.9 12.4 9.5 12 9 12 8.5 12 8.1 12.4 8.1 12.9 8.1 12.9 8.1 20.1 8.1 20.1 8.1 20.1 0.9 20.1 0.9 20.1 0.4 20.1-0 20.5-0 21-0 21.5 0.4 21.9 0.9 21.9 0.9 21.9 8.1 21.9 8.1 21.9 8.1 21.9 8.1 29.1 8.1 29.1 8.1 29.6 8.5 30 9 30 9.5 30 9.9 29.6 9.9 29.1 9.9 29.1 9.9 21.9 9.9 21.9 9.9 21.9 17.1 21.9 17.1 21.9 17.6 21.9 18 21.5 18 21 18 20.5 17.6 20.1 17.1 20.1Z" fill="rgb(109,125,138)"/><path fillRule="evenodd" d="M 37.78 43.02C 37.41 39 34.59 36.09 31.06 36.09 28.7 36.09 26.55 37.36 25.33 39.41 24.13 37.34 22.06 36.09 19.75 36.09 16.21 36.09 13.39 39 13.03 43.02 13 43.19 12.88 44.13 13.24 45.65 13.75 47.85 14.94 49.85 16.68 51.43 16.68 51.43 25.33 59.33 25.33 59.33 25.33 59.33 34.13 51.43 34.13 51.43 35.86 49.85 37.05 47.85 37.56 45.65 37.92 44.13 37.8 43.19 37.78 43.02Z" fill="rgb(255,255,255)"/><path fillRule="evenodd" d="M 32.15 29.17C 34.74 31.82 31.5 32.39 31.5 32.39 30.44 32.75 30.25 31.63 30.25 31.63 30.25 31.63 28.03 25.03 28.03 25.03 27.56 23.32 26.51 23.63 26.51 23.63 23.84 24.54 22.86 21.46 22.86 21.46 22.86 21.46 21.63 17.81 21.63 17.81 20.74 15.15 23.43 14.1 23.43 14.1 23.43 14.1 26.88 12.93 26.88 12.93 27.99 12.55 28.16 13.61 28.16 13.61 28.16 13.61 30.94 22.06 30.94 22.06 31.18 22.77 30.7 24.31 30.7 24.31 30.7 26.5 32.9 27.57 32.15 29.17ZM 45.04 14.57C 45.81 13.74 46.12 12.53 45.74 11.38 45.35 10.23 44.37 9.46 43.26 9.28 43.26 9.28 40.67 1.57 40.67 1.57 40.33 0.56 39.86 1.97 39.86 1.97 37.96 9.61 29.51 11.92 29.51 11.92 28.53 12.26 28.96 13.04 28.96 13.04 28.96 13.04 31.41 20.32 31.41 20.32 31.69 21.16 32.57 20.87 32.57 20.87 41.83 17.71 46.96 22.53 46.96 22.53 46.96 22.53 48 23.2 47.63 22.26 47.63 22.26 45.04 14.57 45.04 14.57ZM 48.33 5.29C 48.33 5.29 47.87 4.95 47.87 4.95 47.87 4.95 45.25 8.57 45.25 8.57 45.25 8.57 45.71 8.91 45.71 8.91 45.71 8.91 48.33 5.29 48.33 5.29ZM 46.79 14.44C 46.79 14.44 50.68 16.6 50.68 16.6 50.68 16.6 50.96 16.09 50.96 16.09 50.96 16.09 47.07 13.93 47.07 13.93 47.07 13.93 46.79 14.44 46.79 14.44ZM 46.82 11.47C 46.82 11.47 51.09 10.23 51.09 10.23 51.09 10.23 50.93 9.67 50.93 9.67 50.93 9.67 46.66 10.91 46.66 10.91 46.66 10.91 46.82 11.47 46.82 11.47Z" fill="rgb(255,255,255)"/><path fillRule="evenodd" d="M 89.92 15.9C 89.92 15.9 77.27 15.9 77.27 15.9 77.27 15.9 77.27 3.25 77.27 3.25 77.27 2.67 76.49 1.42 74.93 1.42 73.36 1.42 72.58 2.67 72.58 3.25 72.58 3.25 72.58 15.9 72.58 15.9 72.58 15.9 59.94 15.9 59.94 15.9 59.36 15.9 58.11 16.69 58.11 18.25 58.11 19.82 59.36 20.6 59.94 20.6 59.94 20.6 72.58 20.6 72.58 20.6 72.58 20.6 72.58 33.26 72.58 33.26 72.58 33.83 73.36 35.08 74.93 35.08 76.49 35.08 77.27 33.83 77.27 33.26 77.27 33.26 77.27 20.6 77.27 20.6 77.27 20.6 89.92 20.6 89.92 20.6 90.49 20.6 91.74 19.82 91.74 18.25 91.74 16.69 90.49 15.9 89.92 15.9Z" fill="rgb(255,255,255)"/><path fillRule="evenodd" d="M 129.4 15.06C 132.03 16.68 133.88 19.42 134.22 22.6 135.29 23.1 136.49 23.38 137.75 23.38 142.37 23.38 146.11 19.71 146.11 15.19 146.11 10.66 142.37 6.99 137.75 6.99 133.18 7 129.47 10.6 129.4 15.06ZM 123.92 31.84C 128.54 31.84 132.28 28.17 132.28 23.64 132.28 19.12 128.54 15.45 123.92 15.45 119.3 15.45 115.56 19.12 115.56 23.65 115.56 28.17 119.3 31.84 123.92 31.84ZM 127.47 32.39C 127.47 32.39 120.37 32.39 120.37 32.39 114.47 32.39 109.67 37.1 109.67 42.89 109.67 42.89 109.67 51.39 109.67 51.39 109.67 51.39 109.69 51.52 109.69 51.52 109.69 51.52 110.29 51.7 110.29 51.7 115.92 53.43 120.81 54 124.84 54 132.71 54 137.27 51.8 137.55 51.66 137.55 51.66 138.11 51.39 138.11 51.39 138.11 51.39 138.17 51.39 138.17 51.39 138.17 51.39 138.17 42.89 138.17 42.89 138.17 37.1 133.37 32.39 127.47 32.39ZM 141.3 23.94C 141.3 23.94 134.26 23.94 134.26 23.94 134.18 26.7 132.98 29.18 131.08 30.97 136.33 32.5 140.16 37.27 140.16 42.9 140.16 42.9 140.16 45.52 140.16 45.52 147.11 45.27 151.12 43.34 151.38 43.21 151.38 43.21 151.94 42.93 151.94 42.93 151.94 42.93 152 42.93 152 42.93 152 42.93 152 34.43 152 34.43 152 28.64 147.2 23.94 141.3 23.94ZM 109.25 23.38C 110.89 23.38 112.41 22.91 113.7 22.12 114.11 19.5 115.54 17.21 117.59 15.65 117.6 15.5 117.61 15.34 117.61 15.19 117.61 10.66 113.87 7 109.25 7 104.63 7 100.89 10.66 100.89 15.19 100.89 19.71 104.63 23.38 109.25 23.38ZM 116.76 30.97C 114.87 29.19 113.67 26.72 113.58 23.98 113.32 23.96 113.06 23.94 112.8 23.94 112.8 23.94 105.7 23.94 105.7 23.94 99.8 23.94 95 28.64 95 34.43 95 34.43 95 42.93 95 42.93 95 42.93 95.02 43.06 95.02 43.06 95.02 43.06 95.62 43.25 95.62 43.25 100.14 44.63 104.17 45.27 107.67 45.47 107.67 45.47 107.67 42.9 107.67 42.9 107.67 37.27 111.51 32.5 116.76 30.97Z" fill="rgb(97,159,209)"/><path fillRule="evenodd" d="M 55.86 49.23C 55.86 49.23 51.83 43.35 51.83 43.35 51.64 43.18 51.37 43 51.09 43 50.82 43 50.54 43.09 50.36 43.35 50.36 43.35 46.32 49.23 46.32 49.23 46.32 49.23 41.92 49.23 41.92 49.23 41.37 49.23 41 49.59 41 50.12 41 50.21 41 50.3 41 50.39 41 50.39 43.29 58.66 43.29 58.66 43.48 59.38 44.21 60 45.04 60 45.04 60 56.96 60 56.96 60 57.79 60 58.52 59.46 58.71 58.66 58.71 58.66 61 50.39 61 50.39 61 50.3 61 50.21 61 50.12 61 49.59 60.63 49.23 60.08 49.23 60.08 49.23 55.86 49.23 55.86 49.23ZM 48.34 49.23C 48.34 49.23 51.09 45.31 51.09 45.31 51.09 45.31 53.84 49.23 53.84 49.23 53.84 49.23 48.34 49.23 48.34 49.23ZM 51.09 56.35C 50.08 56.35 49.26 55.55 49.26 54.57 49.26 53.59 50.08 52.79 51.09 52.79 52.1 52.79 52.93 53.59 52.93 54.57 52.93 55.55 52.1 56.35 51.09 56.35Z" fill="rgb(255,255,255)"/><path fillRule="evenodd" d="M 81.28 59.32C 80.79 59.77 80.15 60 79.35 60 79.35 60 70.65 60 70.65 60 69.85 60 69.21 59.77 68.72 59.32 68.24 58.87 68 58.25 68 57.47 68 57.12 68.01 56.79 68.03 56.46 68.06 56.13 68.1 55.77 68.17 55.39 68.24 55.01 68.33 54.66 68.44 54.33 68.54 54.01 68.68 53.69 68.86 53.38 69.04 53.07 69.25 52.81 69.48 52.59 69.71 52.37 70 52.2 70.33 52.07 70.66 51.94 71.03 51.87 71.44 51.87 71.5 51.87 71.64 51.94 71.86 52.08 72.08 52.22 72.32 52.38 72.6 52.55 72.87 52.72 73.23 52.88 73.67 53.02 74.11 53.16 74.56 53.23 75 53.23 75.44 53.23 75.89 53.16 76.33 53.02 76.77 52.88 77.13 52.72 77.4 52.55 77.68 52.38 77.92 52.22 78.14 52.08 78.36 51.94 78.5 51.87 78.56 51.87 78.96 51.87 79.33 51.94 79.67 52.07 80 52.2 80.29 52.37 80.52 52.59 80.75 52.81 80.96 53.07 81.14 53.38 81.31 53.69 81.46 54.01 81.56 54.33 81.67 54.66 81.76 55.01 81.83 55.39 81.9 55.77 81.94 56.13 81.97 56.46 81.99 56.79 82 57.12 82 57.47 82 58.25 81.76 58.87 81.28 59.32ZM 75 52.5C 73.95 52.5 73.05 52.13 72.3 51.4 71.55 50.67 71.18 49.78 71.18 48.75 71.18 47.71 71.55 46.83 72.3 46.1 73.05 45.36 73.95 45 75 45 76.05 45 76.95 45.36 77.7 46.1 78.45 46.83 78.82 47.71 78.82 48.75 78.82 49.78 78.45 50.67 77.7 51.4 76.95 52.13 76.05 52.5 75 52.5Z" fill="rgb(25,89,213)"/></svg>